<svg width="50" height="50" viewBox="0 0 50 50" fill="none" xmlns="http://www.w3.org/2000/svg">
<path d="M45.8333 6.25H4.16667C1.875 6.25 0 8.125 0 10.4167V39.5833C0 41.875 1.875 43.75 4.16667 43.75H45.8333C48.125 43.75 49.9792 41.875 49.9792 39.5833L50 10.4167C50 8.125 48.125 6.25 45.8333 6.25ZM45.8333 39.5833H4.16667V10.4167H45.8333V39.5833ZM39.6042 37.4792L43.75 33.3333L40.6042 29.1667H37.1875C36.7292 27.8542 36.4583 26.4583 36.4583 25C36.4583 23.5417 36.7292 22.1458 37.1875 20.8333H40.6042L43.75 16.6667L39.6042 12.5208C36.8398 14.5851 34.8392 17.5089 33.9167 20.8333C33.5417 22.1667 33.3333 23.5625 33.3333 25C33.3333 26.4375 33.5417 27.8333 33.9167 29.1667C34.8447 32.4885 36.8441 35.4108 39.6042 37.4792ZM18.75 25C22.1875 25 25 22.1875 25 18.75C25 15.3125 22.1875 12.5 18.75 12.5C15.3125 12.5 12.5 15.3125 12.5 18.75C12.5 22.1875 15.3125 25 18.75 25ZM18.75 16.6667C19.8958 16.6667 20.8333 17.6042 20.8333 18.75C20.8333 19.8958 19.8958 20.8333 18.75 20.8333C17.6042 20.8333 16.6667 19.8958 16.6667 18.75C16.6667 17.6042 17.6042 16.6667 18.75 16.6667ZM31.25 34.5625C31.25 29.3542 22.9792 27.1042 18.75 27.1042C14.5208 27.1042 6.25 29.3542 6.25 34.5625V37.5H31.25V34.5625ZM11.4167 33.3333C12.9583 32.2917 16.0417 31.25 18.75 31.25C21.4583 31.25 24.5208 32.2708 26.0833 33.3333H11.4167Z" fill="#F4F4F4"/>
</svg>
