<svg width="50" height="50" viewBox="0 0 50 50" fill="none" xmlns="http://www.w3.org/2000/svg">
<path d="M6.25013 27.0833H8.33346V41.6667C8.33346 43.9646 10.2022 45.8333 12.5001 45.8333H37.5001C39.798 45.8333 41.6668 43.9646 41.6668 41.6667V27.0833H43.7501C44.1621 27.0832 44.5648 26.961 44.9073 26.7321C45.2499 26.5032 45.5168 26.1778 45.6745 25.7972C45.8321 25.4166 45.8734 24.9977 45.793 24.5937C45.7127 24.1896 45.5143 23.8184 45.223 23.5271L26.473 4.77708C26.2797 4.58344 26.0501 4.42982 25.7974 4.32501C25.5447 4.22019 25.2737 4.16624 25.0001 4.16624C24.7265 4.16624 24.4556 4.22019 24.2029 4.32501C23.9501 4.42982 23.7205 4.58344 23.5272 4.77708L4.77721 23.5271C4.48594 23.8184 4.28759 24.1896 4.20724 24.5937C4.12689 24.9977 4.16815 25.4166 4.3258 25.7972C4.48344 26.1778 4.7504 26.5032 5.09292 26.7321C5.43544 26.961 5.83815 27.0832 6.25013 27.0833ZM25.0001 9.19583L37.5001 21.6958V31.25L37.5022 41.6667H12.5001V21.6958L25.0001 9.19583Z" fill="#F4F4F4"/>
<path d="M25 37.5C32.7146 37.5 35.2104 30.1271 35.3125 29.8146L31.3542 28.5208C31.3375 28.5687 29.7271 33.3333 25 33.3333C20.3375 33.3333 18.7083 28.7062 18.6438 28.5083L14.6875 29.8146C14.7896 30.1271 17.2854 37.5 25 37.5Z" fill="#F4F4F4"/>
</svg>
