<svg width="80" height="100" viewBox="0 0 80 100" fill="none" xmlns="http://www.w3.org/2000/svg">
<g clip-path="url(#clip0)">
<path d="M72.3843 74.4655L45.7616 92.7446C41.4151 95.7292 35.7916 95.6285 31.5434 92.4892L7.25698 74.5454C3.8487 72.0272 1.81812 67.9071 1.81812 63.5098V33.3705C1.81812 28.6638 4.14241 24.2988 7.94793 21.8588L32.2055 6.30622C36.1358 3.78636 41.0452 3.70343 45.0495 6.08925L71.701 21.9685C75.7047 24.3539 78.1818 28.8368 78.1818 33.6971V63.1745C78.1818 67.7337 75.9999 71.9831 72.3843 74.4655Z" stroke="#24C465" stroke-width="5"/>
<path d="M10.9092 58.1846C10.9092 57.4052 11.0546 56.8308 11.3455 56.4615C11.8304 56.2154 12.2959 56.0923 12.7419 56.0923C12.5092 54.041 12.3928 51.9795 12.3928 49.9077C12.3928 47.9179 12.5092 45.9385 12.7419 43.9692C12.6061 43.9077 12.3734 43.8564 12.0437 43.8154C11.7334 43.7744 11.5007 43.7025 11.3455 43.6C11.1904 43.3538 11.1128 42.7692 11.1128 41.8462C11.1128 40.9436 11.1904 40.3692 11.3455 40.1231C11.7916 39.5487 12.897 39.2615 14.6619 39.2615C16.3492 39.2615 17.3965 39.5282 17.8037 40.0615C18.1334 40.9025 18.2983 41.7641 18.2983 42.6462C18.2983 43.0359 18.2401 43.3333 18.1237 43.5385C17.7165 43.7436 17.377 43.8564 17.1055 43.8769C17.377 44.1846 18.0655 44.8821 19.171 45.9692C20.2765 47.0359 20.9941 47.7846 21.3237 48.2154C21.6534 47.7846 22.3613 47.0256 23.4474 45.9385C24.5528 44.8513 25.2413 44.1538 25.5128 43.8462C25.125 43.7641 24.8631 43.6821 24.7274 43.6C24.5722 43.3538 24.4946 42.7692 24.4946 41.8462C24.4946 40.9436 24.5722 40.3692 24.7274 40.1231C25.1541 39.5282 26.085 39.2308 27.5201 39.2308C28.2959 39.2308 29.0716 39.3231 29.8474 39.5077C30.6231 39.6718 31.1759 39.8769 31.5055 40.1231C31.7383 40.4308 31.8546 40.9539 31.8546 41.6923C31.8546 42.4923 31.7383 43.1077 31.5055 43.5385C31.0401 43.7846 30.6522 43.9077 30.3419 43.9077C30.245 43.9077 30.0995 43.8872 29.9055 43.8462C30.1383 45.5077 30.2546 47.3128 30.2546 49.2615C30.2546 50.8615 30.1383 53.1795 29.9055 56.2154C29.9831 56.1948 30.1092 56.1846 30.2837 56.1846C30.6716 56.1846 31.0789 56.2975 31.5055 56.5231C31.6025 56.7898 31.651 57.2308 31.651 57.8462C31.651 59.4052 31.4086 60.2872 30.9237 60.4923C30.7104 60.6769 29.8279 60.7692 28.2765 60.7692C26.5892 60.7692 25.5031 60.4923 25.0183 59.9385C24.7079 59.5898 24.5528 59.0052 24.5528 58.1846C24.5528 57.3846 24.7079 56.8102 25.0183 56.4615C25.4643 56.2154 25.9298 56.0923 26.4146 56.0923C26.1819 54.041 26.0655 51.3846 26.0655 48.1231C25.4255 49.0256 24.6013 49.9282 23.5928 50.8308C22.5843 51.7333 21.8279 52.1846 21.3237 52.1846C20.8195 52.1846 20.0534 51.7436 19.0255 50.8615C18.017 49.959 17.2025 49.0564 16.5819 48.1538C16.485 51.6615 16.3686 54.3487 16.2328 56.2154C16.3104 56.1948 16.4365 56.1846 16.611 56.1846C16.9989 56.1846 17.4061 56.2975 17.8328 56.5231C18.1625 56.9948 18.3274 57.6308 18.3274 58.4308C18.3274 59.1282 18.1819 59.641 17.891 59.9692C17.4255 60.5231 16.485 60.8 15.0692 60.8C14.2352 60.8 13.4304 60.7077 12.6546 60.5231C11.8789 60.3385 11.4425 60.1436 11.3455 59.9385C11.0546 59.5692 10.9092 58.9846 10.9092 58.1846ZM36.1706 58.1846C36.1706 57.4052 36.316 56.8308 36.6069 56.4615C37.0917 56.2154 37.5572 56.0923 38.0033 56.0923C37.7706 54.041 37.6542 51.9795 37.6542 49.9077C37.6542 47.9179 37.7706 45.9385 38.0033 43.9692C37.8675 43.9077 37.6348 43.8564 37.3051 43.8154C36.9948 43.7744 36.7621 43.7025 36.6069 43.6C36.4517 43.3538 36.3742 42.7692 36.3742 41.8462C36.3742 40.9436 36.4517 40.3692 36.6069 40.1231C37.053 39.5487 38.1584 39.2615 39.9233 39.2615C41.6106 39.2615 42.6578 39.5282 43.0651 40.0615C43.3948 40.9025 43.5597 41.7641 43.5597 42.6462C43.5597 43.0359 43.5015 43.3333 43.3851 43.5385C42.9778 43.7436 42.6384 43.8564 42.3669 43.8769C42.6384 44.1846 43.3269 44.8821 44.4324 45.9692C45.5378 47.0359 46.2554 47.7846 46.5851 48.2154C46.9148 47.7846 47.6226 47.0256 48.7087 45.9385C49.8142 44.8513 50.5026 44.1538 50.7742 43.8462C50.3863 43.7641 50.1245 43.6821 49.9887 43.6C49.8335 43.3538 49.756 42.7692 49.756 41.8462C49.756 40.9436 49.8335 40.3692 49.9887 40.1231C50.4154 39.5282 51.3463 39.2308 52.7815 39.2308C53.5572 39.2308 54.333 39.3231 55.1087 39.5077C55.8845 39.6718 56.4372 39.8769 56.7669 40.1231C56.9997 40.4308 57.116 40.9539 57.116 41.6923C57.116 42.4923 56.9997 43.1077 56.7669 43.5385C56.3015 43.7846 55.9135 43.9077 55.6033 43.9077C55.5063 43.9077 55.3608 43.8872 55.1669 43.8462C55.3997 45.5077 55.516 47.3128 55.516 49.2615C55.516 50.8615 55.3997 53.1795 55.1669 56.2154C55.2445 56.1948 55.3706 56.1846 55.5451 56.1846C55.933 56.1846 56.3402 56.2975 56.7669 56.5231C56.8639 56.7898 56.9124 57.2308 56.9124 57.8462C56.9124 59.4052 56.6699 60.2872 56.1851 60.4923C55.9717 60.6769 55.0893 60.7692 53.5378 60.7692C51.8506 60.7692 50.7645 60.4923 50.2797 59.9385C49.9693 59.5898 49.8142 59.0052 49.8142 58.1846C49.8142 57.3846 49.9693 56.8102 50.2797 56.4615C50.7257 56.2154 51.1911 56.0923 51.676 56.0923C51.4433 54.041 51.3269 51.3846 51.3269 48.1231C50.6869 49.0256 49.8626 49.9282 48.8542 50.8308C47.8457 51.7333 47.0893 52.1846 46.5851 52.1846C46.0808 52.1846 45.3148 51.7436 44.2869 50.8615C43.2784 49.959 42.4639 49.0564 41.8433 48.1538C41.7463 51.6615 41.6299 54.3487 41.4942 56.2154C41.5717 56.1948 41.6978 56.1846 41.8724 56.1846C42.2602 56.1846 42.6675 56.2975 43.0942 56.5231C43.4239 56.9948 43.5887 57.6308 43.5887 58.4308C43.5887 59.1282 43.4433 59.641 43.1524 59.9692C42.6869 60.5231 41.7463 60.8 40.3306 60.8C39.4966 60.8 38.6917 60.7077 37.916 60.5231C37.1402 60.3385 36.7039 60.1436 36.6069 59.9385C36.316 59.5692 36.1706 58.9846 36.1706 58.1846ZM61.5774 58.1231C61.5774 57.1385 61.6356 56.5846 61.7519 56.4615C61.9265 56.359 62.2658 56.2667 62.7701 56.1846C63.1192 56.1231 63.3422 56.0923 63.4392 56.0923C63.2065 54.041 63.0901 51.9795 63.0901 49.9077C63.0901 47.9179 63.2065 45.9385 63.4392 43.9692C63.3422 43.9692 63.1192 43.9385 62.7701 43.8769C62.2658 43.7949 61.9265 43.7025 61.7519 43.6C61.6356 43.4769 61.5774 42.9231 61.5774 41.9385C61.5774 40.8718 61.6356 40.2667 61.7519 40.1231C61.7325 39.8769 62.0429 39.6821 62.6829 39.5385C63.3422 39.3744 64.1567 39.2923 65.1265 39.2923C66.1543 39.2923 67.1919 39.3846 68.2392 39.5692C68.3556 39.7744 68.501 40.2975 68.6756 41.1385C68.8501 41.959 68.9277 42.5846 68.9083 43.0154C68.9083 43.2821 68.8792 43.4564 68.821 43.5385C68.3943 43.7641 67.9289 43.8769 67.4247 43.8769C67.2113 43.8769 67.0465 43.8667 66.9301 43.8462C67.1629 45.5077 67.2792 47.3128 67.2792 49.2615C67.2792 50.8615 67.1629 53.1795 66.9301 56.2154C67.0465 56.1948 67.2113 56.1846 67.4247 56.1846C67.9289 56.1846 68.3943 56.2975 68.821 56.5231C68.8792 56.6052 68.9083 56.7795 68.9083 57.0462C68.9083 57.4769 68.821 58.1128 68.6465 58.9538C68.4913 59.7744 68.3556 60.2872 68.2392 60.4923C67.1338 60.5948 66.1253 60.6461 65.2138 60.6461C64.2053 60.6461 63.3713 60.5846 62.7119 60.4615C62.0525 60.3385 61.7325 60.1641 61.7519 59.9385C61.6356 59.7948 61.5774 59.1898 61.5774 58.1231Z" fill="#24C465"/>
</g>
<defs>
<clipPath id="clip0">
<rect width="80" height="100" fill="white"/>
</clipPath>
</defs>
</svg>
