<svg width="509" height="1024" viewBox="0 0 509 1024" fill="none" xmlns="http://www.w3.org/2000/svg">
<path d="M236.271 130.489C280.837 130.489 316.964 96.5182 316.964 54.6131C316.964 12.708 280.837 -21.2628 236.271 -21.2628C191.706 -21.2628 155.578 12.708 155.578 54.6131C155.578 96.5182 191.706 130.489 236.271 130.489Z" stroke="#CCF381" stroke-width="13" stroke-linejoin="round"/>
<path d="M236.911 219.613C336.304 219.613 416.869 144.932 416.869 52.8066C416.869 -39.3188 336.304 -114 236.911 -114C137.517 -114 56.9526 -39.3188 56.9526 52.8066" stroke="#24C465" stroke-width="13" stroke-linecap="round" stroke-linejoin="round"/>
<path d="M92.1759 788.781C45.1344 788.781 7 753.306 7 709.533C7 665.76 45.1344 630.307 92.1759 630.307C139.217 630.307 177.352 665.782 177.352 709.555V951.876M421.352 243.701C380.677 243.701 347.703 274.706 347.703 312.953C347.703 351.199 380.677 382.204 421.352 382.204C462.026 382.204 495 351.199 495 312.953V243.701H421.352Z" stroke="#CCF381" stroke-width="13" stroke-linecap="round" stroke-linejoin="round"/>
<path d="M80.6483 430.028C39.9739 430.028 7 460.571 7 498.251C7 535.931 39.9739 566.474 80.6483 566.474C121.323 566.474 154.297 535.931 154.297 498.251V219.613" stroke="#F80332" stroke-width="13" stroke-linecap="round" stroke-linejoin="round"/>
<path d="M341.939 794.102C331.94 794.11 322.036 792.266 312.795 788.675C303.553 785.084 295.154 779.817 288.077 773.173C281.001 766.53 275.385 758.642 271.55 749.958C267.716 741.274 265.738 731.965 265.729 722.562V518.781C265.738 509.378 267.716 500.069 271.55 491.385C275.385 482.701 281.001 474.813 288.077 468.17C295.154 461.526 303.553 456.259 312.795 452.668C322.036 449.077 331.94 447.233 341.939 447.241V447.241C351.939 447.233 361.843 449.077 371.084 452.668C380.326 456.259 388.725 461.526 395.802 468.17C402.878 474.813 408.494 482.701 412.329 491.385C416.163 500.069 418.141 509.378 418.149 518.781V722.562C418.141 731.965 416.163 741.274 412.329 749.958C408.494 758.642 402.878 766.53 395.802 773.173C388.725 779.817 380.326 785.084 371.084 788.675C361.843 792.266 351.939 794.11 341.939 794.102V794.102Z" stroke="#24C465" stroke-width="13" stroke-linejoin="round"/>
<path d="M92.4961 891.657H86.3352C75.9117 891.662 65.5913 893.597 55.9632 897.352C46.3351 901.107 37.5878 906.609 30.2209 913.543C22.8539 920.477 17.0115 928.707 13.0272 937.764C9.04301 946.821 6.99496 956.527 7.00001 966.328C6.98982 986.123 15.3424 1005.11 30.2204 1019.11C45.0984 1033.12 65.283 1040.99 86.334 1041H269.65C290.701 1040.99 310.886 1033.12 325.764 1019.11C340.642 1005.11 348.994 986.123 348.984 966.328V966.328C348.994 946.534 340.642 927.547 325.764 913.543C310.886 899.54 290.701 891.667 269.65 891.657H263.489" stroke="#24C465" stroke-width="13" stroke-linecap="round" stroke-linejoin="round"/>
<path d="M57.5933 137.715V359.321" stroke="#CCF381" stroke-width="13" stroke-linecap="round" stroke-linejoin="round"/>
<path d="M686.365 830H568.874C531.281 830 496.492 846.498 468.15 874.516M568.459 1310.71C473.215 1310.71 396.002 1203.43 396.002 1071.08C395.868 1027.22 404.631 984.051 421.45 945.726L568.459 1310.71Z" stroke="#F80332" stroke-width="13" stroke-linecap="round" stroke-linejoin="round"/>
</svg>
